<svg width="102" height="42" viewBox="0 0 102 42" fill="none" xmlns="http://www.w3.org/2000/svg">
<path d="M0 3.5V39.4922H36.0141V3.5H0ZM19.1869 6.57594H27.5606V9.58154H19.1869V6.57594ZM3.0821 6.57594H6.08913V9.58154H3.0821V6.57594ZM3.0821 17.3042H6.08913V20.3145H3.0821V17.3042ZM11.4558 36.4116H3.0821V33.406H11.4558V36.4116ZM16.8272 25.6786H6.08913V28.0372H16.8272V36.4116H13.8155V31.0475H3.0821V22.673H16.8272V25.6786ZM16.8272 20.3145H13.8155V14.9457H3.0821V11.9401H13.8155V6.57594H16.8272V20.3145ZM32.932 36.4116H19.1869V33.406H32.932V36.4116ZM32.932 31.0475H19.1869V22.673H22.1939V28.0372H29.9203V22.673H32.932V31.0475ZM24.5536 25.6786V22.673H27.5606V25.6786H24.5536ZM32.932 20.3145H19.1869V11.9401H29.9203V6.57594H32.932V20.3145Z" fill="#344054"/>
<path d="M29.9217 14.9453H22.1953V17.3038H29.9217V14.9453Z" fill="#344054"/>
<path d="M48.4909 13.2103L43.9874 6.5051L47.2337 6.5051L50.114 10.7955L52.9897 6.5051L56.2407 6.5051L51.7372 13.2103L56.6582 20.5391L53.4119 20.5391L50.114 15.6344L46.8161 20.5391L43.5699 20.5391L48.4909 13.2103Z" fill="#344054"/>
<path d="M70.5458 18.1L69.1666 15.4039L66.1173 9.4677L64.6021 6.51367L63.0868 9.4677L60.047 15.4039L58.6678 18.1L57.4199 20.5336H60.4504L61.6983 18.1H67.52L68.7678 20.5336H71.7983L70.5505 18.1H70.5458ZM63.0728 15.4039L64.5974 12.4264L66.122 15.4039H63.0681H63.0728Z" fill="#344054"/>
<path d="M99.612 6.50488L94.4517 16.5767L92.9646 19.4698L92.4204 20.5388H89.3852L91.3977 16.6189L85.8105 6.50488H88.8926L92.8801 13.7305L96.5815 6.50488H99.612Z" fill="#344054"/>
<path d="M79.0421 17.8238C78.9389 17.8378 78.831 17.8425 78.7231 17.8425C77.7473 17.8425 76.8513 17.5237 76.1242 16.9704C75.078 16.1873 74.3978 14.9354 74.3978 13.524C74.3978 12.1126 75.0827 10.8466 76.1382 10.0636C76.8607 9.51967 77.7567 9.19613 78.7278 9.19613C78.845 9.19613 78.9576 9.20082 79.0749 9.21489C80.2852 9.30398 81.3595 9.90416 82.0819 10.7951L83.9584 8.84446C82.6777 7.40496 80.8059 6.5 78.7278 6.5C78.0382 6.5 77.3626 6.60316 76.734 6.79071C75.8145 7.05798 74.9748 7.51281 74.2571 8.10361C72.6996 9.39307 71.7051 11.339 71.7051 13.5193C71.7051 15.6997 72.6949 17.6315 74.243 18.9163C74.956 19.5165 75.8005 19.9713 76.7152 20.2433C77.3532 20.4308 78.0288 20.534 78.7278 20.534C80.8106 20.534 82.6824 19.6243 83.9678 18.1848L82.0819 16.2295C81.3595 17.1392 80.2758 17.7394 79.0467 17.8238H79.0421Z" fill="#344054"/>
<path d="M72.7368 33.9069L71.3529 31.2108L68.3037 25.2746L66.7884 22.3206L65.2732 25.2746L62.2333 31.2108L60.8494 33.9069L59.6016 36.3405H62.6321L63.8799 33.9069H69.7016L70.9448 36.3405H73.9753L72.7321 33.9069H72.7368ZM65.2638 31.2108L66.7884 28.2333L68.3131 31.2108H65.2591H65.2638Z" fill="#344054"/>
<path d="M56.5707 33.649L55.3228 31.2154L52.2736 25.2792L50.7583 22.3252L49.2431 25.2792L46.2032 31.2154L44.9554 33.649H43.5762V36.3451H57.9546V33.649H56.5754H56.5707ZM47.9859 33.649L49.2337 31.2154L50.7583 28.2379L52.283 31.2154L53.5355 33.649H47.9812H47.9859Z" fill="#344054"/>
<path d="M78.8496 22.3111C78.9387 22.3111 79.0184 22.3299 79.1123 22.3346H79.1733C79.2155 22.3393 79.253 22.3393 79.2952 22.3486C79.2342 22.344 79.1733 22.3346 79.1123 22.3346C79.0278 22.3299 78.9434 22.3205 78.8496 22.3205C78.6994 22.3205 78.554 22.3252 78.3992 22.344C78.3429 22.344 78.2913 22.358 78.235 22.3627C78.2163 22.3674 78.1975 22.3674 78.174 22.3674C78.1693 22.3721 78.1553 22.3721 78.1506 22.3721C78.1365 22.3721 78.1318 22.3768 78.1224 22.3768C78.1037 22.3815 78.0943 22.3815 78.0755 22.3908H78.0614C78.0052 22.3955 77.9536 22.4096 77.8973 22.419C77.8832 22.419 77.8785 22.4237 77.8691 22.4237C77.7659 22.4471 77.6674 22.4706 77.5736 22.5034L77.4657 22.5409C77.3625 22.569 77.264 22.6065 77.1701 22.6487C77.0857 22.6769 77.0059 22.7144 76.9262 22.7566C76.8417 22.7941 76.7573 22.841 76.6776 22.8832C76.4852 22.991 76.2976 23.1129 76.124 23.2536C76.1052 23.2724 76.0818 23.2817 76.063 23.2958C76.0583 23.3099 76.0442 23.3146 76.0396 23.3146C76.0349 23.3146 76.0349 23.3146 76.0255 23.3286C75.9973 23.3568 75.9645 23.3849 75.9363 23.413C75.9317 23.4177 75.9176 23.4271 75.9082 23.4365C75.9082 23.4365 75.9035 23.438 75.8941 23.4412L75.8801 23.4552C75.866 23.4599 75.8566 23.4693 75.8519 23.4834H75.8472C75.8191 23.5115 75.7815 23.5443 75.7487 23.5725C75.744 23.5771 75.744 23.5865 75.7346 23.5865C75.6971 23.624 75.6643 23.6569 75.6314 23.6944C75.5658 23.76 75.5048 23.8397 75.4391 23.9101C75.3734 23.9898 75.3124 24.0695 75.2467 24.1539C75.1811 24.243 75.1201 24.3414 75.0638 24.4399C75.0075 24.5243 74.9606 24.6087 74.9184 24.6931C74.8621 24.7916 74.8152 24.8854 74.7729 24.9885C74.529 25.5324 74.4023 26.1279 74.4023 26.7516C74.4023 27.3752 74.529 27.9613 74.7636 28.5005C74.8058 28.599 74.8527 28.7021 74.9043 28.7912C74.9512 28.8897 75.0075 28.9835 75.0638 29.0773C75.1201 29.171 75.1811 29.2601 75.2374 29.3445C75.2796 29.4055 75.3218 29.4618 75.364 29.5133C75.6127 29.8275 75.9035 30.1135 76.2319 30.348C76.2976 30.3949 76.3726 30.4511 76.4477 30.498C76.5228 30.5449 76.5931 30.5871 76.6729 30.6293C76.8652 30.7371 77.0716 30.8356 77.2827 30.92C77.3625 30.9435 77.4469 30.9763 77.5267 30.9997C77.6346 31.0372 77.7378 31.0607 77.8457 31.0841C77.8691 31.0888 77.8926 31.0982 77.9254 31.1029L77.2546 32.4111L75.2421 36.331H78.2772L78.8214 35.2666L80.3038 32.3736L80.9043 31.206H82.9262V36.3357H85.6236V22.3018H78.8449L78.8496 22.3111ZM82.9356 28.5146H78.8496C77.8785 28.5146 77.0904 27.7268 77.0904 26.7562C77.0904 25.8466 77.78 25.0964 78.6666 25.0073C78.7276 25.0026 78.7886 25.0026 78.8496 25.0026H82.9262L82.9309 25.0073V28.5146H82.9356Z" fill="#344054"/>
<path d="M98.9494 22.3115V36.3408H96.2567V31.2111H90.4162V36.3408H87.7188V22.3115H90.4162V28.5103H96.2567V22.3115H98.9494Z" fill="#344054"/>
</svg>
